<svg width="369" height="337" viewBox="0 0 369 337" fill="none" xmlns="http://www.w3.org/2000/svg">
<g clip-path="url(#clip0_3234_117)">
<path d="M114.38 106.78L68.48 133.28C65.4 135.06 63.5 138.35 63.5 141.91V194.91C63.5 198.47 65.4 201.76 68.48 203.54L114.38 230.04C117.46 231.82 121.26 231.82 124.35 230.04L170.25 203.54C173.33 201.76 175.23 198.47 175.23 194.91V141.91C175.23 138.35 173.33 135.06 170.25 133.28L124.35 106.78C121.27 105 117.47 105 114.38 106.78ZM152.99 131.32C154.38 132.12 154.42 134.11 153.07 134.97C145.22 139.97 132.28 146.6 118.86 146.6C105.44 146.6 93.03 140.23 85.14 135.27C83.78 134.42 83.82 132.42 85.21 131.62L115.98 113.85C118.07 112.64 120.64 112.64 122.73 113.85L152.98 131.32H152.99ZM73.8 137.9C79.48 142.18 89.06 149.89 105.78 154.37C107.77 154.9 109.3 156.48 109.76 158.48C111.28 165.16 111.37 172.16 108.59 178.43L95.58 207.78C94.94 209.23 93.18 209.8 91.81 209.01L73.8 198.61C71.71 197.4 70.42 195.18 70.42 192.76V144.05C70.42 141.64 71.71 139.09 73.8 137.89V137.9ZM102.06 211.68L117.15 182.63C117.87 181.25 119.85 181.25 120.56 182.63L135.74 212.22C136.46 213.61 135.95 215.32 134.59 216.11L122.73 222.96C120.64 224.17 118.07 224.17 115.98 222.96L103.19 215.58C101.83 214.79 101.33 213.08 102.05 211.68H102.06ZM164.92 198.61L146.17 209.44C144.8 210.23 143.04 209.66 142.4 208.21L129.03 178.17C126.31 172.06 126.35 165.26 127.73 158.72C128.13 156.8 129.6 155.28 131.5 154.79C147.84 150.6 158.29 142.5 163.84 138.28C164.16 138.04 164.58 138.01 164.92 138.21C167.01 139.42 168.3 141.64 168.3 144.06V192.77C168.3 195.18 167.01 197.41 164.92 198.62V198.61Z" fill="url(#paint0_linear_3234_117)"/>
<path d="M118.86 141.61C123.433 141.61 127.14 137.903 127.14 133.33C127.14 128.757 123.433 125.05 118.86 125.05C114.287 125.05 110.58 128.757 110.58 133.33C110.58 137.903 114.287 141.61 118.86 141.61Z" fill="url(#paint1_linear_3234_117)"/>
<path d="M178.97 212.14L133.07 238.64C129.99 240.42 128.09 243.71 128.09 247.27V300.27C128.09 303.83 129.99 307.12 133.07 308.9L178.97 335.4C182.05 337.18 185.85 337.18 188.94 335.4L234.84 308.9C237.92 307.12 239.82 303.83 239.82 300.27V247.27C239.82 243.71 237.92 240.42 234.84 238.64L188.94 212.14C185.86 210.36 182.06 210.36 178.97 212.14ZM217.58 236.69C218.97 237.49 219.01 239.48 217.66 240.34C209.81 245.34 196.87 251.97 183.45 251.97C170.03 251.97 157.62 245.6 149.73 240.64C148.37 239.79 148.41 237.79 149.8 236.99L180.57 219.22C182.66 218.01 185.23 218.01 187.32 219.22L217.57 236.69H217.58ZM138.4 243.26C144.08 247.54 153.66 255.25 170.38 259.73C172.37 260.26 173.9 261.84 174.36 263.84C175.88 270.52 175.97 277.52 173.19 283.79L160.18 313.14C159.54 314.59 157.78 315.16 156.41 314.37L138.4 303.97C136.31 302.76 135.02 300.54 135.02 298.12V249.41C135.02 247 136.31 244.45 138.4 243.25V243.26ZM166.65 317.05L181.74 288C182.46 286.62 184.44 286.62 185.15 288L200.33 317.59C201.05 318.98 200.54 320.69 199.18 321.48L187.32 328.33C185.23 329.54 182.66 329.54 180.57 328.33L167.78 320.95C166.42 320.16 165.92 318.45 166.64 317.05H166.65ZM229.51 303.97L210.76 314.8C209.39 315.59 207.63 315.02 206.99 313.57L193.62 283.53C190.9 277.42 190.94 270.62 192.32 264.08C192.72 262.16 194.19 260.64 196.09 260.15C212.43 255.96 222.88 247.86 228.43 243.64C228.75 243.4 229.17 243.37 229.51 243.57C231.6 244.78 232.89 247 232.89 249.42V298.13C232.89 300.54 231.6 302.77 229.51 303.98V303.97Z" fill="url(#paint2_linear_3234_117)"/>
<path d="M183.45 246.97C188.023 246.97 191.73 243.263 191.73 238.69C191.73 234.117 188.023 230.41 183.45 230.41C178.877 230.41 175.17 234.117 175.17 238.69C175.17 243.263 178.877 246.97 183.45 246.97Z" fill="url(#paint3_linear_3234_117)"/>
<path d="M243.56 106.78L197.66 133.28C194.58 135.06 192.68 138.35 192.68 141.91V194.91C192.68 198.47 194.58 201.76 197.66 203.54L243.56 230.04C246.64 231.82 250.44 231.82 253.53 230.04L299.43 203.54C302.51 201.76 304.41 198.47 304.41 194.91V141.91C304.41 138.35 302.51 135.06 299.43 133.28L253.53 106.78C250.45 105 246.65 105 243.56 106.78ZM282.17 131.32C283.56 132.12 283.6 134.11 282.25 134.97C274.4 139.97 261.46 146.6 248.04 146.6C234.62 146.6 222.21 140.23 214.32 135.27C212.96 134.42 213 132.42 214.39 131.62L245.16 113.85C247.25 112.64 249.82 112.64 251.91 113.85L282.16 131.32H282.17ZM202.99 137.9C208.67 142.18 218.25 149.89 234.97 154.37C236.96 154.9 238.49 156.48 238.95 158.48C240.47 165.16 240.56 172.16 237.78 178.43L224.77 207.78C224.13 209.23 222.37 209.8 221 209.01L202.99 198.61C200.9 197.4 199.61 195.18 199.61 192.76V144.05C199.61 141.64 200.9 139.09 202.99 137.89V137.9ZM231.24 211.68L246.33 182.63C247.05 181.25 249.03 181.25 249.74 182.63L264.92 212.22C265.64 213.61 265.13 215.32 263.77 216.11L251.91 222.96C249.82 224.17 247.25 224.17 245.16 222.96L232.37 215.58C231.01 214.79 230.51 213.08 231.23 211.68H231.24ZM294.1 198.61L275.35 209.44C273.98 210.23 272.22 209.66 271.58 208.21L258.21 178.17C255.49 172.06 255.53 165.26 256.91 158.72C257.31 156.8 258.78 155.28 260.68 154.79C277.02 150.6 287.47 142.5 293.02 138.28C293.34 138.04 293.76 138.01 294.1 138.21C296.19 139.42 297.48 141.64 297.48 144.06V192.77C297.48 195.18 296.19 197.41 294.1 198.62V198.61Z" fill="url(#paint4_linear_3234_117)"/>
<path d="M248.05 141.61C252.623 141.61 256.33 137.903 256.33 133.33C256.33 128.757 252.623 125.05 248.05 125.05C243.477 125.05 239.77 128.757 239.77 133.33C239.77 137.903 243.477 141.61 248.05 141.61Z" fill="url(#paint5_linear_3234_117)"/>
<path d="M112.06 297.11V250.44C112.06 244.86 109.08 239.71 104.25 236.92L63.8302 213.58C59.0002 210.79 53.0502 210.79 48.2202 213.58L7.80023 236.92C2.97023 239.71 -0.00976562 244.86 -0.00976562 250.44V297.11C-0.00976562 302.69 2.97023 307.84 7.80023 310.63L48.2202 333.97C53.0502 336.76 59.0002 336.76 63.8302 333.97L104.25 310.63C109.08 307.84 112.06 302.69 112.06 297.11Z" fill="url(#paint6_linear_3234_117)"/>
<path d="M46.9202 270.51C49.2619 270.51 51.1602 267.089 51.1602 262.87C51.1602 258.651 49.2619 255.23 46.9202 255.23C44.5785 255.23 42.6802 258.651 42.6802 262.87C42.6802 267.089 44.5785 270.51 46.9202 270.51Z" fill="black"/>
<path d="M65.5999 270.51C67.9415 270.51 69.8399 267.089 69.8399 262.87C69.8399 258.651 67.9415 255.23 65.5999 255.23C63.2582 255.23 61.3599 258.651 61.3599 262.87C61.3599 267.089 63.2582 270.51 65.5999 270.51Z" fill="black"/>
<path d="M72.9701 278.22C72.3001 286.11 64.9801 292.32 56.0401 292.32C47.1001 292.32 39.6701 286.01 39.1001 278.04" stroke="black" stroke-width="2.5" stroke-miterlimit="10" stroke-linecap="round"/>
<path d="M368.68 297.11V250.44C368.68 244.86 365.7 239.71 360.87 236.92L320.45 213.58C315.62 210.79 309.67 210.79 304.84 213.58L264.42 236.92C259.59 239.71 256.61 244.86 256.61 250.44V297.11C256.61 302.69 259.59 307.84 264.42 310.63L304.84 333.97C309.67 336.76 315.62 336.76 320.45 333.97L360.87 310.63C365.7 307.84 368.68 302.69 368.68 297.11Z" fill="url(#paint7_linear_3234_117)"/>
<path d="M303.55 270.51C305.892 270.51 307.79 267.089 307.79 262.87C307.79 258.651 305.892 255.23 303.55 255.23C301.208 255.23 299.31 258.651 299.31 262.87C299.31 267.089 301.208 270.51 303.55 270.51Z" fill="black"/>
<path d="M322.22 270.51C324.562 270.51 326.46 267.089 326.46 262.87C326.46 258.651 324.562 255.23 322.22 255.23C319.879 255.23 317.98 258.651 317.98 262.87C317.98 267.089 319.879 270.51 322.22 270.51Z" fill="black"/>
<path d="M329.59 278.22C328.92 286.11 321.6 292.32 312.66 292.32C303.72 292.32 296.29 286.01 295.72 278.04" stroke="black" stroke-width="2.5" stroke-miterlimit="10" stroke-linecap="round"/>
<path d="M239.72 85.6201V38.9501C239.72 33.3701 236.74 28.2201 231.91 25.4301L191.5 2.09006C186.67 -0.699941 180.72 -0.699941 175.89 2.09006L135.47 25.4301C130.64 28.2201 127.66 33.3701 127.66 38.9501V85.6201C127.66 91.2001 130.64 96.3501 135.47 99.1401L175.89 122.48C180.72 125.27 186.67 125.27 191.5 122.48L231.92 99.1401C236.75 96.3501 239.73 91.2001 239.73 85.6201H239.72Z" fill="url(#paint8_linear_3234_117)"/>
<path d="M174.58 59.02C176.922 59.02 178.82 55.5994 178.82 51.38C178.82 47.1605 176.922 43.74 174.58 43.74C172.238 43.74 170.34 47.1605 170.34 51.38C170.34 55.5994 172.238 59.02 174.58 59.02Z" fill="black"/>
<path d="M193.26 59.02C195.601 59.02 197.5 55.5994 197.5 51.38C197.5 47.1605 195.601 43.74 193.26 43.74C190.918 43.74 189.02 47.1605 189.02 51.38C189.02 55.5994 190.918 59.02 193.26 59.02Z" fill="black"/>
<path d="M200.63 66.73C199.96 74.62 192.64 80.83 183.7 80.83C174.76 80.83 167.33 74.52 166.76 66.55" stroke="black" stroke-width="2.5" stroke-miterlimit="10" stroke-linecap="round"/>
</g>
<defs>
<linearGradient id="paint0_linear_3234_117" x1="118.1" y1="228.2" x2="120.38" y2="119.74" gradientUnits="userSpaceOnUse">
<stop stop-color="#E9DCAF"/>
<stop offset="0.17" stop-color="#E5DBB1"/>
<stop offset="0.34" stop-color="#D9DAB7"/>
<stop offset="0.52" stop-color="#C5D7C2"/>
<stop offset="0.69" stop-color="#A9D4D1"/>
<stop offset="0.86" stop-color="#85D0E5"/>
<stop offset="1" stop-color="#61CCF9"/>
</linearGradient>
<linearGradient id="paint1_linear_3234_117" x1="116.87" y1="228.18" x2="119.15" y2="119.71" gradientUnits="userSpaceOnUse">
<stop stop-color="#E9DCAF"/>
<stop offset="0.17" stop-color="#E5DBB1"/>
<stop offset="0.34" stop-color="#D9DAB7"/>
<stop offset="0.52" stop-color="#C5D7C2"/>
<stop offset="0.69" stop-color="#A9D4D1"/>
<stop offset="0.86" stop-color="#85D0E5"/>
<stop offset="1" stop-color="#61CCF9"/>
</linearGradient>
<linearGradient id="paint2_linear_3234_117" x1="182.7" y1="333.56" x2="184.98" y2="225.1" gradientUnits="userSpaceOnUse">
<stop stop-color="#E9DCAF"/>
<stop offset="0.17" stop-color="#E5DBB1"/>
<stop offset="0.34" stop-color="#D9DAB7"/>
<stop offset="0.52" stop-color="#C5D7C2"/>
<stop offset="0.69" stop-color="#A9D4D1"/>
<stop offset="0.86" stop-color="#85D0E5"/>
<stop offset="1" stop-color="#61CCF9"/>
</linearGradient>
<linearGradient id="paint3_linear_3234_117" x1="181.46" y1="333.54" x2="183.74" y2="225.08" gradientUnits="userSpaceOnUse">
<stop stop-color="#E9DCAF"/>
<stop offset="0.17" stop-color="#E5DBB1"/>
<stop offset="0.34" stop-color="#D9DAB7"/>
<stop offset="0.52" stop-color="#C5D7C2"/>
<stop offset="0.69" stop-color="#A9D4D1"/>
<stop offset="0.86" stop-color="#85D0E5"/>
<stop offset="1" stop-color="#61CCF9"/>
</linearGradient>
<linearGradient id="paint4_linear_3234_117" x1="247.29" y1="228.2" x2="249.57" y2="119.74" gradientUnits="userSpaceOnUse">
<stop stop-color="#E9DCAF"/>
<stop offset="0.17" stop-color="#E5DBB1"/>
<stop offset="0.34" stop-color="#D9DAB7"/>
<stop offset="0.52" stop-color="#C5D7C2"/>
<stop offset="0.69" stop-color="#A9D4D1"/>
<stop offset="0.86" stop-color="#85D0E5"/>
<stop offset="1" stop-color="#61CCF9"/>
</linearGradient>
<linearGradient id="paint5_linear_3234_117" x1="246.05" y1="228.18" x2="248.33" y2="119.71" gradientUnits="userSpaceOnUse">
<stop stop-color="#E9DCAF"/>
<stop offset="0.17" stop-color="#E5DBB1"/>
<stop offset="0.34" stop-color="#D9DAB7"/>
<stop offset="0.52" stop-color="#C5D7C2"/>
<stop offset="0.69" stop-color="#A9D4D1"/>
<stop offset="0.86" stop-color="#85D0E5"/>
<stop offset="1" stop-color="#61CCF9"/>
</linearGradient>
<linearGradient id="paint6_linear_3234_117" x1="56.0302" y1="336.06" x2="56.0302" y2="211.49" gradientUnits="userSpaceOnUse">
<stop stop-color="#EDDCAA"/>
<stop offset="0.14" stop-color="#E9DBAB"/>
<stop offset="0.28" stop-color="#DDDBB0"/>
<stop offset="0.41" stop-color="#C9D9B8"/>
<stop offset="0.55" stop-color="#ADD8C3"/>
<stop offset="0.69" stop-color="#89D6D2"/>
<stop offset="0.83" stop-color="#5CD3E4"/>
<stop offset="0.96" stop-color="#29D0F8"/>
<stop offset="1" stop-color="#1AD0FF"/>
</linearGradient>
<linearGradient id="paint7_linear_3234_117" x1="312.66" y1="336.06" x2="312.66" y2="211.49" gradientUnits="userSpaceOnUse">
<stop stop-color="#EDDCAA"/>
<stop offset="0.14" stop-color="#E9DBAB"/>
<stop offset="0.28" stop-color="#DDDBB0"/>
<stop offset="0.41" stop-color="#C9D9B8"/>
<stop offset="0.55" stop-color="#ADD8C3"/>
<stop offset="0.69" stop-color="#89D6D2"/>
<stop offset="0.83" stop-color="#5CD3E4"/>
<stop offset="0.96" stop-color="#29D0F8"/>
<stop offset="1" stop-color="#1AD0FF"/>
</linearGradient>
<linearGradient id="paint8_linear_3234_117" x1="183.69" y1="124.56" x2="183.69" y2="5.3177e-05" gradientUnits="userSpaceOnUse">
<stop stop-color="#EDDCAA"/>
<stop offset="0.14" stop-color="#E9DBAB"/>
<stop offset="0.28" stop-color="#DDDBB0"/>
<stop offset="0.41" stop-color="#C9D9B8"/>
<stop offset="0.55" stop-color="#ADD8C3"/>
<stop offset="0.69" stop-color="#89D6D2"/>
<stop offset="0.83" stop-color="#5CD3E4"/>
<stop offset="0.96" stop-color="#29D0F8"/>
<stop offset="1" stop-color="#1AD0FF"/>
</linearGradient>
<clipPath id="clip0_3234_117">
<rect width="368.68" height="336.75" fill="white"/>
</clipPath>
</defs>
</svg>
